<svg width="160" height="24" viewBox="0 0 160 24" fill="none" xmlns="http://www.w3.org/2000/svg">
<g clip-path="url(#clip0_391_42)">
<g filter="url(#filter0_d_391_42)">
<path d="M11.9065 1.92578H14.4978C14.9371 1.92578 15.2932 2.2819 15.2932 2.72121V21.5331C15.2932 21.9724 14.9371 22.3285 14.4978 22.3285H11.9065V1.92578Z" fill="black"/>
<path d="M0 4.68225C0 4.34672 0.211292 4.04755 0.527505 3.93536L10.5614 0.375219C11.0772 0.192191 11.6189 0.574757 11.6189 1.12211V23.0118C11.6189 23.5547 11.0855 23.9368 10.5715 23.7622L0.537628 20.3541C0.2162 20.245 0 19.9432 0 19.6037V4.68225Z" fill="black"/>
</g>
<path d="M32.2784 10.4375H29.7898C29.7443 10.1155 29.6515 9.82955 29.5114 9.57955C29.3712 9.32576 29.1913 9.10985 28.9716 8.93182C28.7519 8.75379 28.4981 8.61742 28.2102 8.52273C27.9261 8.42803 27.6174 8.38068 27.2841 8.38068C26.6818 8.38068 26.1572 8.5303 25.7102 8.82955C25.2633 9.125 24.9167 9.55682 24.6705 10.125C24.4242 10.6894 24.3011 11.375 24.3011 12.1818C24.3011 13.0114 24.4242 13.7083 24.6705 14.2727C24.9205 14.8371 25.2689 15.2633 25.7159 15.5511C26.1629 15.839 26.6799 15.983 27.267 15.983C27.5966 15.983 27.9015 15.9394 28.1818 15.8523C28.4659 15.7652 28.7178 15.6383 28.9375 15.4716C29.1572 15.3011 29.339 15.0947 29.483 14.8523C29.6307 14.6098 29.733 14.3333 29.7898 14.0227L32.2784 14.0341C32.214 14.5682 32.053 15.0833 31.7955 15.5795C31.5417 16.072 31.1989 16.5133 30.767 16.9034C30.339 17.2898 29.8277 17.5966 29.233 17.8239C28.642 18.0473 27.9735 18.1591 27.2273 18.1591C26.1894 18.1591 25.2614 17.9242 24.4432 17.4545C23.6288 16.9848 22.9848 16.3049 22.5114 15.4148C22.0417 14.5246 21.8068 13.447 21.8068 12.1818C21.8068 10.9129 22.0455 9.83333 22.5227 8.94318C23 8.05303 23.6477 7.375 24.4659 6.90909C25.2841 6.43939 26.2045 6.20455 27.2273 6.20455C27.9015 6.20455 28.5265 6.29924 29.1023 6.48864C29.6818 6.67803 30.1951 6.95455 30.642 7.31818C31.089 7.67803 31.4527 8.11932 31.733 8.64205C32.017 9.16477 32.1989 9.76326 32.2784 10.4375ZM35.7776 12.9545V18H33.3572V6.36364H35.7094V10.8125H35.8117C36.0087 10.2973 36.3269 9.89394 36.7662 9.60227C37.2056 9.30682 37.7568 9.15909 38.4197 9.15909C39.0257 9.15909 39.5541 9.29167 40.0049 9.55682C40.4594 9.81818 40.8117 10.1951 41.0617 10.6875C41.3155 11.1761 41.4405 11.7614 41.4367 12.4432V18H39.0162V12.875C39.02 12.3371 38.8837 11.9186 38.6072 11.6193C38.3344 11.3201 37.9519 11.1705 37.4594 11.1705C37.1299 11.1705 36.8382 11.2405 36.5844 11.3807C36.3344 11.5208 36.1375 11.7254 35.9935 11.9943C35.8534 12.2595 35.7814 12.5795 35.7776 12.9545ZM48.2981 14.2841V9.27273H50.7186V18H48.3947V16.4148H48.3038C48.1068 16.9261 47.7792 17.3371 47.3209 17.6477C46.8663 17.9583 46.3114 18.1136 45.6561 18.1136C45.0727 18.1136 44.5595 17.9811 44.1163 17.7159C43.6731 17.4508 43.3265 17.0739 43.0765 16.5852C42.8303 16.0966 42.7053 15.5114 42.7015 14.8295V9.27273H45.122V14.3977C45.1258 14.9129 45.264 15.3201 45.5368 15.6193C45.8095 15.9186 46.175 16.0682 46.6334 16.0682C46.925 16.0682 47.1977 16.0019 47.4515 15.8693C47.7053 15.733 47.9099 15.5322 48.0652 15.267C48.2243 15.0019 48.3019 14.6742 48.2981 14.2841ZM52.0147 18V9.27273H54.3612V10.7955H54.4522C54.6113 10.2538 54.8783 9.8447 55.2533 9.56818C55.6283 9.28788 56.0601 9.14773 56.5487 9.14773C56.67 9.14773 56.8006 9.1553 56.9408 9.17045C57.0809 9.18561 57.2041 9.20644 57.3101 9.23295V11.3807C57.1965 11.3466 57.0393 11.3163 56.8385 11.2898C56.6378 11.2633 56.4541 11.25 56.2874 11.25C55.9313 11.25 55.6131 11.3277 55.3328 11.483C55.0563 11.6345 54.8366 11.8466 54.6737 12.1193C54.5147 12.392 54.4351 12.7064 54.4351 13.0625V18H52.0147ZM61.4585 18.1705C60.5645 18.1705 59.7956 17.9811 59.1516 17.6023C58.5115 17.2197 58.0191 16.6894 57.6744 16.0114C57.3335 15.3333 57.163 14.553 57.163 13.6705C57.163 12.7765 57.3354 11.9924 57.6801 11.3182C58.0285 10.6402 58.5229 10.1117 59.163 9.73295C59.8032 9.35038 60.5645 9.15909 61.4471 9.15909C62.2085 9.15909 62.8751 9.29735 63.4471 9.57386C64.0191 9.85038 64.4717 10.2386 64.8051 10.7386C65.1384 11.2386 65.3221 11.8258 65.3562 12.5H63.0721C63.0077 12.0644 62.8373 11.714 62.5607 11.4489C62.288 11.1799 61.9301 11.0455 61.4869 11.0455C61.1119 11.0455 60.7842 11.1477 60.5039 11.3523C60.2274 11.553 60.0115 11.8466 59.8562 12.233C59.7009 12.6193 59.6232 13.0871 59.6232 13.6364C59.6232 14.1932 59.699 14.6667 59.8505 15.0568C60.0058 15.447 60.2236 15.7443 60.5039 15.9489C60.7842 16.1534 61.1119 16.2557 61.4869 16.2557C61.7634 16.2557 62.0115 16.1989 62.2312 16.0852C62.4547 15.9716 62.6384 15.8068 62.7823 15.5909C62.9301 15.3712 63.0266 15.108 63.0721 14.8011H65.3562C65.3183 15.4678 65.1365 16.0549 64.8107 16.5625C64.4888 17.0663 64.0437 17.4602 63.4755 17.7443C62.9073 18.0284 62.235 18.1705 61.4585 18.1705ZM68.6864 12.9545V18H66.2659V6.36364H68.6182V10.8125H68.7205C68.9174 10.2973 69.2356 9.89394 69.675 9.60227C70.1144 9.30682 70.6655 9.15909 71.3284 9.15909C71.9345 9.15909 72.4629 9.29167 72.9136 9.55682C73.3682 9.81818 73.7205 10.1951 73.9705 10.6875C74.2242 11.1761 74.3492 11.7614 74.3455 12.4432V18H71.925V12.875C71.9288 12.3371 71.7924 11.9186 71.5159 11.6193C71.2432 11.3201 70.8606 11.1705 70.3682 11.1705C70.0386 11.1705 69.747 11.2405 69.4932 11.3807C69.2432 11.5208 69.0462 11.7254 68.9023 11.9943C68.7621 12.2595 68.6902 12.5795 68.6864 12.9545ZM85.0314 9.71023C84.9859 9.25189 84.7908 8.89583 84.4461 8.64205C84.1014 8.38826 83.6336 8.26136 83.0427 8.26136C82.6412 8.26136 82.3022 8.31818 82.0257 8.43182C81.7492 8.54167 81.537 8.69508 81.3893 8.89205C81.2454 9.08902 81.1734 9.3125 81.1734 9.5625C81.1658 9.77083 81.2094 9.95265 81.3041 10.108C81.4026 10.2633 81.537 10.3977 81.7075 10.5114C81.878 10.6212 82.0749 10.7178 82.2984 10.8011C82.5219 10.8807 82.7605 10.9489 83.0143 11.0057L84.0598 11.2557C84.5673 11.3693 85.0333 11.5208 85.4575 11.7102C85.8817 11.8996 86.2492 12.1326 86.5598 12.4091C86.8704 12.6856 87.1109 13.0114 87.2814 13.3864C87.4556 13.7614 87.5446 14.1913 87.5484 14.6761C87.5446 15.3883 87.3628 16.0057 87.003 16.5284C86.6469 17.0473 86.1317 17.4508 85.4575 17.7386C84.787 18.0227 83.9783 18.1648 83.0314 18.1648C82.092 18.1648 81.2738 18.0208 80.5768 17.733C79.8836 17.4451 79.342 17.0189 78.9518 16.4545C78.5655 15.8864 78.3628 15.1837 78.3439 14.3466H80.7245C80.7511 14.7367 80.8628 15.0625 81.0598 15.3239C81.2605 15.5814 81.5276 15.7765 81.8609 15.9091C82.198 16.0379 82.5787 16.1023 83.003 16.1023C83.4196 16.1023 83.7814 16.0417 84.0882 15.9205C84.3988 15.7992 84.6393 15.6307 84.8098 15.4148C84.9802 15.1989 85.0655 14.9508 85.0655 14.6705C85.0655 14.4091 84.9878 14.1894 84.8325 14.0114C84.681 13.8333 84.4575 13.6818 84.162 13.5568C83.8704 13.4318 83.5124 13.3182 83.0882 13.2159L81.8211 12.8977C80.8401 12.6591 80.0655 12.286 79.4973 11.7784C78.9291 11.2708 78.6469 10.5871 78.6507 9.72727C78.6469 9.02273 78.8344 8.4072 79.2132 7.88068C79.5958 7.35417 80.1204 6.94318 80.787 6.64773C81.4537 6.35227 82.2113 6.20455 83.0598 6.20455C83.9234 6.20455 84.6772 6.35227 85.3211 6.64773C85.9689 6.94318 86.4727 7.35417 86.8325 7.88068C87.1923 8.4072 87.378 9.01705 87.3893 9.71023H85.0314ZM88.5178 21.2727V9.27273H90.9041V10.7386H91.0121C91.1182 10.5038 91.2716 10.2652 91.4723 10.0227C91.6769 9.77652 91.942 9.57197 92.2678 9.40909C92.5973 9.24242 93.0064 9.15909 93.4951 9.15909C94.1314 9.15909 94.7185 9.32576 95.2564 9.65909C95.7943 9.98864 96.2242 10.4867 96.5462 11.1534C96.8682 11.8163 97.0291 12.6477 97.0291 13.6477C97.0291 14.6212 96.8719 15.4432 96.5576 16.1136C96.2469 16.7803 95.8227 17.286 95.2848 17.6307C94.7507 17.9716 94.1523 18.142 93.4894 18.142C93.0197 18.142 92.6201 18.0644 92.2905 17.9091C91.9648 17.7538 91.6977 17.5587 91.4894 17.3239C91.281 17.0852 91.1219 16.8447 91.0121 16.6023H90.9382V21.2727H88.5178ZM90.8871 13.6364C90.8871 14.1553 90.9591 14.608 91.103 14.9943C91.2469 15.3807 91.4553 15.6818 91.728 15.8977C92.0007 16.1098 92.3322 16.2159 92.7223 16.2159C93.1163 16.2159 93.4496 16.108 93.7223 15.892C93.9951 15.6723 94.2015 15.3693 94.3416 14.983C94.4856 14.5928 94.5576 14.1439 94.5576 13.6364C94.5576 13.1326 94.4875 12.6894 94.3473 12.3068C94.2072 11.9242 94.0007 11.625 93.728 11.4091C93.4553 11.1932 93.1201 11.0852 92.7223 11.0852C92.3284 11.0852 91.9951 11.1894 91.7223 11.3977C91.4534 11.6061 91.2469 11.9015 91.103 12.2841C90.9591 12.6667 90.8871 13.1174 90.8871 13.6364ZM100.491 18.1648C99.9346 18.1648 99.4384 18.0682 99.0028 17.875C98.5672 17.678 98.2225 17.3883 97.9687 17.0057C97.7187 16.6193 97.5937 16.1383 97.5937 15.5625C97.5937 15.0777 97.6827 14.6705 97.8607 14.3409C98.0388 14.0114 98.2812 13.7462 98.588 13.5455C98.8948 13.3447 99.2433 13.1932 99.6335 13.0909C100.027 12.9886 100.44 12.9167 100.872 12.875C101.38 12.822 101.789 12.7727 102.099 12.7273C102.41 12.678 102.635 12.6061 102.776 12.5114C102.916 12.4167 102.986 12.2765 102.986 12.0909V12.0568C102.986 11.697 102.872 11.4186 102.645 11.2216C102.421 11.0246 102.103 10.9261 101.69 10.9261C101.255 10.9261 100.908 11.0227 100.651 11.2159C100.393 11.4053 100.222 11.6439 100.139 11.9318L97.9005 11.75C98.0141 11.2197 98.2376 10.7614 98.571 10.375C98.9043 9.98485 99.3342 9.68561 99.8607 9.47727C100.391 9.26515 101.005 9.15909 101.702 9.15909C102.186 9.15909 102.651 9.21591 103.094 9.32955C103.541 9.44318 103.936 9.61932 104.281 9.85795C104.63 10.0966 104.904 10.4034 105.105 10.7784C105.306 11.1496 105.406 11.5947 105.406 12.1136V18H103.111V16.7898H103.043C102.902 17.0625 102.715 17.303 102.48 17.5114C102.245 17.7159 101.963 17.8769 101.633 17.9943C101.304 18.108 100.923 18.1648 100.491 18.1648ZM101.185 16.4943C101.541 16.4943 101.855 16.4242 102.128 16.2841C102.401 16.1402 102.615 15.947 102.77 15.7045C102.925 15.4621 103.003 15.1875 103.003 14.8807V13.9545C102.927 14.0038 102.823 14.0492 102.69 14.0909C102.561 14.1288 102.416 14.1648 102.253 14.1989C102.09 14.2292 101.927 14.2576 101.764 14.2841C101.601 14.3068 101.454 14.3277 101.321 14.3466C101.037 14.3883 100.789 14.4545 100.577 14.5455C100.365 14.6364 100.2 14.7595 100.082 14.9148C99.9649 15.0663 99.9062 15.2557 99.9062 15.483C99.9062 15.8125 100.026 16.0644 100.264 16.2386C100.507 16.4091 100.813 16.4943 101.185 16.4943ZM110.587 18.1705C109.693 18.1705 108.924 17.9811 108.28 17.6023C107.64 17.2197 107.148 16.6894 106.803 16.0114C106.462 15.3333 106.292 14.553 106.292 13.6705C106.292 12.7765 106.464 11.9924 106.809 11.3182C107.157 10.6402 107.652 10.1117 108.292 9.73295C108.932 9.35038 109.693 9.15909 110.576 9.15909C111.337 9.15909 112.004 9.29735 112.576 9.57386C113.148 9.85038 113.6 10.2386 113.934 10.7386C114.267 11.2386 114.451 11.8258 114.485 12.5H112.201C112.136 12.0644 111.966 11.714 111.689 11.4489C111.417 11.1799 111.059 11.0455 110.616 11.0455C110.241 11.0455 109.913 11.1477 109.633 11.3523C109.356 11.553 109.14 11.8466 108.985 12.233C108.83 12.6193 108.752 13.0871 108.752 13.6364C108.752 14.1932 108.828 14.6667 108.979 15.0568C109.135 15.447 109.352 15.7443 109.633 15.9489C109.913 16.1534 110.241 16.2557 110.616 16.2557C110.892 16.2557 111.14 16.1989 111.36 16.0852C111.583 15.9716 111.767 15.8068 111.911 15.5909C112.059 15.3712 112.155 15.108 112.201 14.8011H114.485C114.447 15.4678 114.265 16.0549 113.939 16.5625C113.618 17.0663 113.172 17.4602 112.604 17.7443C112.036 18.0284 111.364 18.1705 110.587 18.1705ZM119.372 18.1705C118.474 18.1705 117.701 17.9886 117.054 17.625C116.41 17.2576 115.914 16.7386 115.565 16.0682C115.217 15.3939 115.042 14.5966 115.042 13.6761C115.042 12.7784 115.217 11.9905 115.565 11.3125C115.914 10.6345 116.404 10.1061 117.037 9.72727C117.673 9.34848 118.419 9.15909 119.275 9.15909C119.851 9.15909 120.387 9.25189 120.883 9.4375C121.383 9.61932 121.819 9.89394 122.19 10.2614C122.565 10.6288 122.857 11.0909 123.065 11.6477C123.273 12.2008 123.378 12.8485 123.378 13.5909V14.2557H116.008V12.7557H121.099C121.099 12.4072 121.023 12.0985 120.872 11.8295C120.72 11.5606 120.51 11.3504 120.241 11.1989C119.976 11.0436 119.667 10.9659 119.315 10.9659C118.948 10.9659 118.622 11.0511 118.338 11.2216C118.058 11.3883 117.838 11.6136 117.679 11.8977C117.52 12.178 117.438 12.4905 117.434 12.8352V14.2614C117.434 14.6932 117.514 15.0663 117.673 15.3807C117.836 15.6951 118.065 15.9375 118.361 16.108C118.656 16.2784 119.006 16.3636 119.412 16.3636C119.681 16.3636 119.927 16.3258 120.15 16.25C120.374 16.1742 120.565 16.0606 120.724 15.9091C120.883 15.7576 121.005 15.572 121.088 15.3523L123.326 15.5C123.213 16.0379 122.98 16.5076 122.628 16.9091C122.279 17.3068 121.828 17.6174 121.275 17.8409C120.726 18.0606 120.092 18.1705 119.372 18.1705ZM128.62 18V6.36364H130.029V11.5455H136.234V6.36364H137.643V18H136.234V12.7955H130.029V18H128.62ZM143.301 18.1818C142.46 18.1818 141.735 17.9962 141.125 17.625C140.519 17.25 140.051 16.7273 139.722 16.0568C139.396 15.3826 139.233 14.5985 139.233 13.7045C139.233 12.8106 139.396 12.0227 139.722 11.3409C140.051 10.6553 140.51 10.1212 141.097 9.73864C141.688 9.35227 142.377 9.15909 143.165 9.15909C143.62 9.15909 144.068 9.23485 144.512 9.38636C144.955 9.53788 145.358 9.78409 145.722 10.125C146.085 10.4621 146.375 10.9091 146.591 11.4659C146.807 12.0227 146.915 12.7083 146.915 13.5227V14.0909H140.188V12.9318H145.551C145.551 12.4394 145.453 12 145.256 11.6136C145.063 11.2273 144.786 10.9223 144.426 10.6989C144.07 10.4754 143.65 10.3636 143.165 10.3636C142.631 10.3636 142.169 10.4962 141.779 10.7614C141.392 11.0227 141.095 11.3636 140.887 11.7841C140.678 12.2045 140.574 12.6553 140.574 13.1364V13.9091C140.574 14.5682 140.688 15.1269 140.915 15.5852C141.146 16.0398 141.466 16.3864 141.875 16.625C142.284 16.8598 142.76 16.9773 143.301 16.9773C143.654 16.9773 143.972 16.928 144.256 16.8295C144.544 16.7273 144.792 16.5758 145 16.375C145.209 16.1705 145.37 15.9167 145.483 15.6136L146.779 15.9773C146.642 16.4167 146.413 16.803 146.091 17.1364C145.769 17.4659 145.371 17.7235 144.898 17.9091C144.424 18.0909 143.892 18.1818 143.301 18.1818ZM149.656 6.36364V18H148.315V6.36364H149.656ZM151.472 21.2727V9.27273H152.767V10.6591H152.926C153.025 10.5076 153.161 10.3144 153.335 10.0795C153.513 9.84091 153.767 9.62879 154.097 9.44318C154.43 9.25379 154.881 9.15909 155.449 9.15909C156.184 9.15909 156.831 9.3428 157.392 9.71023C157.953 10.0777 158.39 10.5985 158.705 11.2727C159.019 11.947 159.176 12.7424 159.176 13.6591C159.176 14.5833 159.019 15.3845 158.705 16.0625C158.39 16.7367 157.955 17.2595 157.398 17.6307C156.841 17.9981 156.199 18.1818 155.472 18.1818C154.911 18.1818 154.462 18.089 154.125 17.9034C153.788 17.714 153.528 17.5 153.347 17.2614C153.165 17.0189 153.025 16.8182 152.926 16.6591H152.813V21.2727H151.472ZM152.79 13.6364C152.79 14.2955 152.886 14.8769 153.08 15.3807C153.273 15.8807 153.555 16.2727 153.926 16.5568C154.297 16.8371 154.752 16.9773 155.29 16.9773C155.85 16.9773 156.318 16.8295 156.693 16.5341C157.072 16.2348 157.356 15.8333 157.546 15.3295C157.739 14.822 157.835 14.2576 157.835 13.6364C157.835 13.0227 157.741 12.4697 157.551 11.9773C157.366 11.4811 157.083 11.089 156.705 10.8011C156.33 10.5095 155.858 10.3636 155.29 10.3636C154.744 10.3636 154.286 10.5019 153.915 10.7784C153.544 11.0511 153.263 11.4337 153.074 11.9261C152.885 12.4148 152.79 12.9848 152.79 13.6364Z" fill="black"/>
</g>
<defs>
<filter id="filter0_d_391_42" x="-2.8874" y="-3.26984" width="24.1275" height="32.9523" filterUnits="userSpaceOnUse" color-interpolation-filters="sRGB">
<feFlood flood-opacity="0" result="BackgroundImageFix"/>
<feColorMatrix in="SourceAlpha" type="matrix" values="0 0 0 0 0 0 0 0 0 0 0 0 0 0 0 0 0 0 127 0" result="hardAlpha"/>
<feOffset dx="1.52975" dy="1.14731"/>
<feGaussianBlur stdDeviation="2.20858"/>
<feComposite in2="hardAlpha" operator="out"/>
<feColorMatrix type="matrix" values="0 0 0 0 0 0 0 0 0 0 0 0 0 0 0 0 0 0 0.12 0"/>
<feBlend mode="normal" in2="BackgroundImageFix" result="effect1_dropShadow_391_42"/>
<feBlend mode="normal" in="SourceGraphic" in2="effect1_dropShadow_391_42" result="shape"/>
</filter>
<clipPath id="clip0_391_42">
<rect width="160" height="24" fill="white"/>
</clipPath>
</defs>
</svg>
