<svg width="563" height="721" viewBox="0 0 563 721" fill="none" xmlns="http://www.w3.org/2000/svg">
<g filter="url(#filter0_d_491_145)">
<rect x="28" y="24" width="495" height="653" rx="30" fill="#F2F2F2"/>
<rect x="28.5" y="24.5" width="494" height="652" rx="29.5" stroke="#858585"/>
</g>
<rect x="99" y="81" width="353" height="179" rx="18" fill="#D9D9D9"/>
<rect x="99" y="456" width="353" height="179" rx="18" fill="#D9D9D9"/>
<rect x="212" y="360" width="127" height="46" rx="18" fill="#D9D9D9"/>
<rect x="99" y="280" width="353" height="10" rx="5" fill="#D9D9D9"/>
<rect x="99" y="655" width="353" height="10" rx="5" fill="#D9D9D9"/>
<rect x="99" y="296" width="353" height="10" rx="5" fill="#D9D9D9"/>
<path d="M99 676C99 673.239 101.239 671 104 671H447C449.761 671 452 673.239 452 676V676H99V676Z" fill="#D9D9D9"/>
<rect x="99" y="312" width="353" height="10" rx="5" fill="#D9D9D9"/>
<rect x="99" y="328" width="163" height="10" rx="5" fill="#D9D9D9"/>
<defs>
<filter id="filter0_d_491_145" x="0.5" y="0.5" width="562" height="720" filterUnits="userSpaceOnUse" color-interpolation-filters="sRGB">
<feFlood flood-opacity="0" result="BackgroundImageFix"/>
<feColorMatrix in="SourceAlpha" type="matrix" values="0 0 0 0 0 0 0 0 0 0 0 0 0 0 0 0 0 0 127 0" result="hardAlpha"/>
<feMorphology radius="3" operator="dilate" in="SourceAlpha" result="effect1_dropShadow_491_145"/>
<feOffset dx="6" dy="10"/>
<feGaussianBlur stdDeviation="15.25"/>
<feComposite in2="hardAlpha" operator="out"/>
<feColorMatrix type="matrix" values="0 0 0 0 0 0 0 0 0 0 0 0 0 0 0 0 0 0 0.1 0"/>
<feBlend mode="normal" in2="BackgroundImageFix" result="effect1_dropShadow_491_145"/>
<feBlend mode="normal" in="SourceGraphic" in2="effect1_dropShadow_491_145" result="shape"/>
</filter>
</defs>
</svg>
